<svg xmlns="http://www.w3.org/2000/svg" viewBox="0 0 512 512" role="img" aria-label="LunaeClaw icon">
  <defs>
    <linearGradient id="lc-bg" x1="0" y1="0" x2="1" y2="1">
      <stop offset="0%" stop-color="#0b1220"/>
      <stop offset="55%" stop-color="#14243d"/>
      <stop offset="100%" stop-color="#1a3457"/>
    </linearGradient>
    <linearGradient id="lc-moon" x1="0" y1="0" x2="1" y2="1">
      <stop offset="0%" stop-color="#ffe2a8"/>
      <stop offset="100%" stop-color="#ffc56a"/>
    </linearGradient>
    <linearGradient id="lc-claw" x1="0" y1="0" x2="1" y2="1">
      <stop offset="0%" stop-color="#6bd6ff"/>
      <stop offset="100%" stop-color="#35b0ff"/>
    </linearGradient>
    <filter id="lc-soft" x="-20%" y="-20%" width="140%" height="140%">
      <feGaussianBlur stdDeviation="5"/>
    </filter>
  </defs>

  <rect width="512" height="512" rx="118" fill="url(#lc-bg)"/>

  <circle cx="256" cy="256" r="178" fill="none" stroke="#d8e9ff" stroke-opacity="0.18" stroke-width="4"/>
  <circle cx="256" cy="256" r="148" fill="none" stroke="#d8e9ff" stroke-opacity="0.11" stroke-width="3"/>

  <circle cx="242" cy="238" r="102" fill="url(#lc-moon)"/>
  <circle cx="280" cy="218" r="99" fill="url(#lc-bg)"/>

  <g fill="none" stroke="url(#lc-claw)" stroke-width="16" stroke-linecap="round" opacity="0.96">
    <path d="M294 172c45 24 73 63 79 115"/>
    <path d="M278 198c37 24 58 54 61 93"/>
    <path d="M263 223c28 21 42 44 45 74"/>
  </g>

  <g fill="#ffffff" opacity="0.88">
    <circle cx="165" cy="152" r="5"/>
    <circle cx="336" cy="124" r="4"/>
    <circle cx="130" cy="286" r="3.5"/>
  </g>

  <ellipse cx="230" cy="336" rx="78" ry="20" fill="#7db7ff" opacity="0.16" filter="url(#lc-soft)"/>
</svg>
